<?xml version="1.0" standalone="no"?>
<!DOCTYPE svg PUBLIC "-//W3C//DTD SVG 20010904//EN"
 "http://www.w3.org/TR/2001/REC-SVG-20010904/DTD/svg10.dtd">
<svg version="1.0" xmlns="http://www.w3.org/2000/svg"
 width="200.000000pt" height="200.000000pt" viewBox="0 0 200.000000 200.000000"
 preserveAspectRatio="xMidYMid meet">

<g transform="translate(0.000000,200.000000) scale(0.100000,-0.100000)"
fill="#000000" stroke="none">
<path d="M996 1443 c-3 -4 -6 -16 -6 -27 0 -12 -11 -45 -25 -73 -29 -64 -43
-66 -137 -23 -44 19 -67 36 -71 50 -8 32 -51 23 -55 -11 -3 -29 22 -46 43 -29
8 7 33 0 81 -21 60 -26 69 -34 69 -55 -1 -14 -18 -41 -39 -63 -30 -31 -42 -37
-67 -33 -18 3 -36 -2 -47 -11 -16 -15 -22 -14 -68 7 -28 13 -54 31 -57 41 -10
24 -52 16 -52 -10 0 -15 7 -20 26 -21 14 0 47 -8 73 -18 38 -14 51 -26 63 -53
13 -31 12 -38 -2 -61 -10 -15 -28 -37 -42 -48 -14 -12 -22 -27 -19 -33 13 -20
24 -12 46 33 27 56 35 62 90 70 52 7 82 -12 93 -56 9 -34 30 -41 59 -19 13 10
54 28 91 40 62 19 70 19 91 6 13 -9 30 -13 39 -9 20 7 76 -33 88 -63 12 -31
29 -29 29 3 0 15 -4 23 -11 18 -18 -11 -77 54 -72 79 3 14 -3 30 -16 41 -18
16 -21 31 -21 103 0 94 2 96 69 58 24 -14 45 -24 47 -22 2 2 -18 16 -44 31
-27 15 -52 38 -58 49 -5 12 -18 22 -30 22 -23 0 -124 73 -124 91 0 13 -25 26
-34 17z m134 -136 c0 -10 7 -20 15 -23 20 -8 22 -170 3 -177 -16 -5 -168 125
-186 159 -11 21 -9 30 14 76 15 29 31 56 37 59 14 10 117 -73 117 -94z m-102
-124 c30 -27 63 -55 74 -64 14 -11 18 -22 13 -42 -6 -23 -17 -30 -76 -48 -63
-19 -70 -19 -85 -5 -9 9 -25 14 -37 11 -32 -8 -74 32 -80 76 -5 32 -1 41 31
72 32 31 48 38 96 46 5 0 33 -20 64 -46z"/>
<path d="M940 851 c0 -28 -2 -29 -34 -24 -44 7 -76 -23 -76 -70 0 -49 29 -71
96 -73 l54 -2 0 99 c0 92 -1 99 -20 99 -15 0 -20 -7 -20 -29z m-10 -65 c6 -8
10 -25 8 -38 -2 -18 -9 -23 -33 -23 -24 0 -31 5 -33 23 -4 25 13 52 33 52 7 0
18 -7 25 -14z"/>
<path d="M1020 729 c0 -92 1 -99 20 -99 16 0 20 7 20 35 0 32 2 35 19 25 30
-16 50 -12 76 15 31 30 33 77 4 104 -17 15 -35 20 -80 19 l-59 -1 0 -98z m110
57 c19 -24 8 -61 -19 -64 -29 -4 -53 22 -44 46 12 33 43 41 63 18z"/>
</g>
</svg>
